<svg xmlns="http://www.w3.org/2000/svg" viewBox="0 0 1024 1024" fill="currentColor">
  <path
    d="M677.79 498.29c136.13-13.2 211.98 148.46 120.19 247.22 10 12.88 31.14 31.18 43 44.01 11.69 11.63 39.85 34.74 45.88 48.12 17.93 39.82-32.75 74.47-63.37 41.37-27.5-30.58-54.48-63.52-80.48-95.56-207.96 56.29-277.36-252.89-65.22-285.17zm6 24c-195.01 23.41-111.72 309.85 63.89 230.88 118.5-59.79 71.15-243.67-63.89-230.88zm94.94 244.86c-1.96.4-10.68 6.29-10.72 8.32s10.77 14.31 13.01 17.01c19.68 23.57 40.63 46.14 60.08 69.92 13.32 12.35 32.89-1.95 21.9-16.9-26.27-21.76-54.14-65.86-84.27-78.35zM363 229c.09 42.65-1.68 89.1-1.05 131.54.23 35.64 7.26 70.57-9.41 103.5-24.3 48-94.5 67.97-141.22 41.13-91.74-68.31 43.51-182.75 127.67-124.18 1.13-54.88-1.43-188.79-1.04-241.54 1.05-14.09 8.01-18.12 21.03-12.95 80.57 29.49 156.55 129.66 79.03 203.01-6.53 5.4-13.62 9.76-21.53 3.5-6.85-5.41-2.04-15.41-1.48-22.53 4.03-34.46-19.54-72.5-51.99-81.5zm-1-70.5v43c45.62 23.92 63.3 36.38 77.5 87.48 18.26-40.44-3.42-89.92-40.58-111.4-11.05-7.12-23.31-12.23-33.84-20.17-1.08-.92-2.83.21-3.07 1.09zm-82.21 230.79c-29.41 2.18-61.21 20.59-72.28 48.73-10.08 25.63 4.54 45.68 29.47 52.5 80.61 24.87 159.06-97.21 42.8-101.22zM806 342c-120.3-3.82-100.71 25.15-102-97.5l-1.5-1.5h-198c-3.92 0-7.16-5.9-7.53-9.48-.92-8.97 3.67-13.96 12.53-14.52 59.65.45 119.46-.16 178.95-1.05 8.61-.13 28.71-1.28 35.78 1.31 29.74 28.17 58.69 58.94 88.78 87.22 4.31 4.24 14.16 12.82 15.93 18.07 2.44 61.74.36 124.02 1.06 185.95-2.18 13.43-16.03 15.4-22.56 3.55l-.4-165.6-1.05-6.46zm-79-82.5V319c7.85 1.87 16.53 1.39 24.46-.04 3.58-.07 37.59.93 37.55-1.46l-59.52-59.49-2.49 1.5zM585.7 787.3c5.79 6.4.4 17.8-8.19 17.71-69.65-2.28-139.6 3.9-209.01 0-19.28 1.12-28.94-1.79-29.54-23.46-2.53-82.01 1.9-167.91-.91-249.99 2.36-15.35 22.55-12.77 23.88 1.11l.03 232.88c1.8 3.75 0 12.92 1.53 15.47 2.1 3.53 7.99 1.02 10.97.94 64.05-1.12 128.91-.18 193.09 0 4.79.31 14.9 1.75 18.15 5.34z" />
  <path
    d="M438.71 432.21l301.13.46c8.5 2.17 8.02 16.47.74 19.4-99.05 6.02-201.04-.02-300.63 1.48-11.43-2.41-12.12-17.41-1.24-21.35zM445.67 363.35c66.84 1.55 134.02.6 200.79-.4 7.99-.18 22.87-1.12 29.05 4.03 7.93 6.61 2.06 18.57-6.99 20.04-47.95.61-96.2-1.37-143.98 1.02-20.26-4.11-86.65 10.3-93.51-10.61-1.34-9.26 6.36-13.79 14.63-14.09zM444.78 498.28l116.62-.18c16.07.75 15.29 22.31.11 23.9-39-.76-81.17 2.74-119.92.92-16.61-2.2-12.18-24.46 3.2-24.64zM445.79 571.29c21.15-2.29 45.15 1.01 66.61-.19 17.87 2.08 18.01 18.68 2.05 23.84l-72.86-.03c-17.04-3.22-12.09-24.41 4.21-23.63zM753.72 581.22c9.58-1.98 16.2 7.26 12.12 16.12-21.47 29.41-47.22 59.26-70.86 87.14-7.69 8.91-14.29 20.35-27.49 11.53-11.84-13.41-24.47-26.34-36.01-39.99-5.35-6.34-15.33-15.45-9.04-24.08 3.32-4.55 9.34-4.86 14.29-3.17 5.86 2 15.1 15.18 19.75 20.25 5.57 6.06 11.35 12.01 16.97 18.04 2.92 2.65 5.51-1.45 7.53-3.58 25.36-24.8 44.01-61.81 72.74-82.26z" />
</svg>